# Rocky Arena - Blender Z-up, meters
mtllib low_poly_arena.mtl
v -256.0000 -256.0000 -2.0000
v 256.0000 -256.0000 -2.0000
v 256.0000 256.0000 -2.0000
v -256.0000 256.0000 -2.0000
v -256.0000 -256.0000 0.0000
v 256.0000 -256.0000 0.0000
v 256.0000 256.0000 0.0000
v -256.0000 256.0000 0.0000
v -14.0000 -1.0000 0.0000
v 14.0000 -1.0000 0.0000
v 14.0000 21.0000 0.0000
v -14.0000 21.0000 0.0000
v -14.0000 -1.0000 6.0000
v 14.0000 -1.0000 6.0000
v 14.0000 21.0000 6.0000
v -14.0000 21.0000 6.0000
v -14.2000 -1.2000 5.8000
v 14.2000 -1.2000 5.8000
v 14.2000 21.2000 5.8000
v -14.2000 21.2000 5.8000
v -14.2000 -1.2000 6.6000
v 14.2000 -1.2000 6.6000
v 14.2000 21.2000 6.6000
v -14.2000 21.2000 6.6000
v -41.0000 -16.0000 0.0000
v -23.0000 -16.0000 0.0000
v -23.0000 0.0000 0.0000
v -41.0000 0.0000 0.0000
v -41.0000 -16.0000 4.0000
v -23.0000 -16.0000 4.0000
v -23.0000 0.0000 4.0000
v -41.0000 0.0000 4.0000
v -41.2000 -16.2000 3.8000
v -22.8000 -16.2000 3.8000
v -22.8000 0.2000 3.8000
v -41.2000 0.2000 3.8000
v -41.2000 -16.2000 4.6000
v -22.8000 -16.2000 4.6000
v -22.8000 0.2000 4.6000
v -41.2000 0.2000 4.6000
v 22.0000 5.0000 0.0000
v 42.0000 5.0000 0.0000
v 42.0000 19.0000 0.0000
v 22.0000 19.0000 0.0000
v 22.0000 5.0000 6.0000
v 42.0000 5.0000 6.0000
v 42.0000 19.0000 6.0000
v 22.0000 19.0000 6.0000
v 21.8000 4.8000 5.8000
v 42.2000 4.8000 5.8000
v 42.2000 19.2000 5.8000
v 21.8000 19.2000 5.8000
v 21.8000 4.8000 6.6000
v 42.2000 4.8000 6.6000
v 42.2000 19.2000 6.6000
v 21.8000 19.2000 6.6000
v -12.0000 -38.0000 0.0000
v 12.0000 -38.0000 0.0000
v 12.0000 -26.0000 0.0000
v -12.0000 -26.0000 0.0000
v -12.0000 -38.0000 5.0000
v 12.0000 -38.0000 5.0000
v 12.0000 -26.0000 5.0000
v -12.0000 -26.0000 5.0000
v -12.2000 -38.2000 4.8000
v 12.2000 -38.2000 4.8000
v 12.2000 -25.8000 4.8000
v -12.2000 -25.8000 4.8000
v -12.2000 -38.2000 5.6000
v 12.2000 -38.2000 5.6000
v 12.2000 -25.8000 5.6000
v -12.2000 -25.8000 5.6000
v 31.0000 -25.0000 0.0000
v 45.0000 -25.0000 0.0000
v 45.0000 -11.0000 0.0000
v 31.0000 -11.0000 0.0000
v 31.0000 -25.0000 3.0000
v 45.0000 -25.0000 3.0000
v 45.0000 -11.0000 3.0000
v 31.0000 -11.0000 3.0000
v -17.0000 -12.7500 0.0000
v -7.0000 -12.7500 0.0000
v -7.0000 -11.2500 0.0000
v -17.0000 -11.2500 0.0000
v -17.0000 -12.7500 3.0000
v -7.0000 -12.7500 3.0000
v -7.0000 -11.2500 3.0000
v -17.0000 -11.2500 3.0000
v 9.0000 -6.7500 0.0000
v 19.0000 -6.7500 0.0000
v 19.0000 -5.2500 0.0000
v 9.0000 -5.2500 0.0000
v 9.0000 -6.7500 3.0000
v 19.0000 -6.7500 3.0000
v 19.0000 -5.2500 3.0000
v 9.0000 -5.2500 3.0000
v -12.0000 27.2500 0.0000
v -4.0000 27.2500 0.0000
v -4.0000 28.7500 0.0000
v -12.0000 28.7500 0.0000
v -12.0000 27.2500 3.0000
v -4.0000 27.2500 3.0000
v -4.0000 28.7500 3.0000
v -12.0000 28.7500 3.0000
v 14.0000 29.0000 0.0000
v 26.0000 29.0000 0.0000
v 26.0000 31.0000 0.0000
v 14.0000 31.0000 0.0000
v 14.0000 29.0000 3.0000
v 26.0000 29.0000 3.0000
v 26.0000 31.0000 3.0000
v 14.0000 31.0000 3.0000
v -29.0000 13.0000 0.0000
v -27.0000 13.0000 0.0000
v -27.0000 23.0000 0.0000
v -29.0000 23.0000 0.0000
v -29.0000 13.0000 2.0000
v -27.0000 13.0000 2.0000
v -27.0000 23.0000 2.0000
v -29.0000 23.0000 2.0000
v 15.0000 -9.0000 13.4000
v 21.0000 -9.0000 13.4000
v 21.0000 -7.0000 13.4000
v 15.0000 -7.0000 13.4000
v 15.0000 -9.0000 14.6000
v 21.0000 -9.0000 14.6000
v 21.0000 -7.0000 14.6000
v 15.0000 -7.0000 14.6000
v -41.0000 6.5000 0.0000
v -35.0000 6.5000 0.0000
v -35.0000 9.5000 0.0000
v -41.0000 9.5000 0.0000
v -41.0000 6.5000 2.0000
v -35.0000 6.5000 2.0000
v -35.0000 9.5000 2.0000
v -41.0000 9.5000 2.0000
v -45.0000 -63.0000 -2.0000
v -15.0000 -63.0000 -2.0000
v -15.0000 -53.0000 -2.0000
v -45.0000 -53.0000 -2.0000
v -45.0000 -63.0000 26.0000
v -15.0000 -63.0000 26.0000
v -15.0000 -53.0000 26.0000
v -45.0000 -53.0000 26.0000
v -12.5000 -68.0000 -2.0000
v 22.5000 -68.0000 -2.0000
v 22.5000 -56.0000 -2.0000
v -12.5000 -56.0000 -2.0000
v -12.5000 -68.0000 32.0000
v 22.5000 -68.0000 32.0000
v 22.5000 -56.0000 32.0000
v -12.5000 -56.0000 32.0000
v 26.0000 -63.0000 -2.0000
v 54.0000 -63.0000 -2.0000
v 54.0000 -53.0000 -2.0000
v 26.0000 -53.0000 -2.0000
v 26.0000 -63.0000 24.0000
v 54.0000 -63.0000 24.0000
v 54.0000 -53.0000 24.0000
v 26.0000 -53.0000 24.0000
v -63.0000 -60.0000 -2.0000
v -53.0000 -60.0000 -2.0000
v -53.0000 60.0000 -2.0000
v -63.0000 60.0000 -2.0000
v -63.0000 -60.0000 26.0000
v -53.0000 -60.0000 26.0000
v -53.0000 60.0000 26.0000
v -63.0000 60.0000 26.0000
v 53.0000 -60.0000 -2.0000
v 63.0000 -60.0000 -2.0000
v 63.0000 60.0000 -2.0000
v 53.0000 60.0000 -2.0000
v 53.0000 -60.0000 26.0000
v 63.0000 -60.0000 26.0000
v 63.0000 60.0000 26.0000
v 53.0000 60.0000 26.0000
v -50.0000 55.0000 -2.0000
v -10.0000 55.0000 -2.0000
v -10.0000 65.0000 -2.0000
v -50.0000 65.0000 -2.0000
v -50.0000 55.0000 18.0000
v -10.0000 55.0000 18.0000
v -10.0000 65.0000 18.0000
v -50.0000 65.0000 18.0000
v 10.0000 55.0000 -2.0000
v 50.0000 55.0000 -2.0000
v 50.0000 65.0000 -2.0000
v 10.0000 65.0000 -2.0000
v 10.0000 55.0000 18.0000
v 50.0000 55.0000 18.0000
v 50.0000 65.0000 18.0000
v 10.0000 65.0000 18.0000
v -55.0000 -55.0000 -2.0000
v -41.0000 -55.0000 -2.0000
v -41.0000 -41.0000 -2.0000
v -55.0000 -41.0000 -2.0000
v -55.0000 -55.0000 38.0000
v -41.0000 -55.0000 38.0000
v -41.0000 -41.0000 38.0000
v -55.0000 -41.0000 38.0000
v 41.0000 -55.0000 -2.0000
v 55.0000 -55.0000 -2.0000
v 55.0000 -41.0000 -2.0000
v 41.0000 -41.0000 -2.0000
v 41.0000 -55.0000 38.0000
v 55.0000 -55.0000 38.0000
v 55.0000 -41.0000 38.0000
v 41.0000 -41.0000 38.0000
v -31.4000 -61.4000 26.0000
v -28.6000 -61.4000 26.0000
v -28.6000 -58.6000 26.0000
v -31.4000 -58.6000 26.0000
v -31.4000 -61.4000 37.2000
v -28.6000 -61.4000 37.2000
v -28.6000 -58.6000 37.2000
v -31.4000 -58.6000 37.2000
v -37.0000 -67.0000 36.8500
v -23.0000 -67.0000 36.8500
v -23.0000 -53.0000 36.8500
v -37.0000 -53.0000 36.8500
v -37.0000 -67.0000 40.3500
v -23.0000 -67.0000 40.3500
v -23.0000 -53.0000 40.3500
v -37.0000 -53.0000 40.3500
v -33.9000 -64.9000 39.3000
v -24.1000 -64.9000 39.3000
v -24.1000 -55.1000 39.3000
v -33.9000 -55.1000 39.3000
v -33.9000 -64.9000 42.1000
v -24.1000 -64.9000 42.1000
v -24.1000 -55.1000 42.1000
v -33.9000 -55.1000 42.1000
v 6.4000 -65.6000 32.0000
v 9.6000 -65.6000 32.0000
v 9.6000 -62.4000 32.0000
v 6.4000 -62.4000 32.0000
v 6.4000 -65.6000 44.8000
v 9.6000 -65.6000 44.8000
v 9.6000 -62.4000 44.8000
v 6.4000 -62.4000 44.8000
v 0.0000 -72.0000 44.4000
v 16.0000 -72.0000 44.4000
v 16.0000 -56.0000 44.4000
v 0.0000 -56.0000 44.4000
v 0.0000 -72.0000 48.4000
v 16.0000 -72.0000 48.4000
v 16.0000 -56.0000 48.4000
v 0.0000 -56.0000 48.4000
v 3.4000 -69.6000 47.2000
v 14.6000 -69.6000 47.2000
v 14.6000 -58.4000 47.2000
v 3.4000 -58.4000 47.2000
v 3.4000 -69.6000 50.4000
v 14.6000 -69.6000 50.4000
v 14.6000 -58.4000 50.4000
v 3.4000 -58.4000 50.4000
v 40.8000 -61.2000 24.0000
v 43.2000 -61.2000 24.0000
v 43.2000 -58.8000 24.0000
v 40.8000 -58.8000 24.0000
v 40.8000 -61.2000 33.6000
v 43.2000 -61.2000 33.6000
v 43.2000 -58.8000 33.6000
v 40.8000 -58.8000 33.6000
v 36.0000 -66.0000 33.3000
v 48.0000 -66.0000 33.3000
v 48.0000 -54.0000 33.3000
v 36.0000 -54.0000 33.3000
v 36.0000 -66.0000 36.3000
v 48.0000 -66.0000 36.3000
v 48.0000 -54.0000 36.3000
v 36.0000 -54.0000 36.3000
v 38.8000 -64.2000 35.4000
v 47.2000 -64.2000 35.4000
v 47.2000 -55.8000 35.4000
v 38.8000 -55.8000 35.4000
v 38.8000 -64.2000 37.8000
v 47.2000 -64.2000 37.8000
v 47.2000 -55.8000 37.8000
v 38.8000 -55.8000 37.8000
v -59.0000 -11.0000 26.0000
v -57.0000 -11.0000 26.0000
v -57.0000 -9.0000 26.0000
v -59.0000 -9.0000 26.0000
v -59.0000 -11.0000 34.0000
v -57.0000 -11.0000 34.0000
v -57.0000 -9.0000 34.0000
v -59.0000 -9.0000 34.0000
v -63.0000 -15.0000 33.7500
v -53.0000 -15.0000 33.7500
v -53.0000 -5.0000 33.7500
v -63.0000 -5.0000 33.7500
v -63.0000 -15.0000 36.2500
v -53.0000 -15.0000 36.2500
v -53.0000 -5.0000 36.2500
v -63.0000 -5.0000 36.2500
v -60.5000 -13.5000 35.5000
v -53.5000 -13.5000 35.5000
v -53.5000 -6.5000 35.5000
v -60.5000 -6.5000 35.5000
v -60.5000 -13.5000 37.5000
v -53.5000 -13.5000 37.5000
v -53.5000 -6.5000 37.5000
v -60.5000 -6.5000 37.5000
v 56.9000 3.9000 26.0000
v 59.1000 3.9000 26.0000
v 59.1000 6.1000 26.0000
v 56.9000 6.1000 26.0000
v 56.9000 3.9000 34.8000
v 59.1000 3.9000 34.8000
v 59.1000 6.1000 34.8000
v 56.9000 6.1000 34.8000
v 52.5000 -0.5000 34.5250
v 63.5000 -0.5000 34.5250
v 63.5000 10.5000 34.5250
v 52.5000 10.5000 34.5250
v 52.5000 -0.5000 37.2750
v 63.5000 -0.5000 37.2750
v 63.5000 10.5000 37.2750
v 52.5000 10.5000 37.2750
v 55.1500 1.1500 36.4500
v 62.8500 1.1500 36.4500
v 62.8500 8.8500 36.4500
v 55.1500 8.8500 36.4500
v 55.1500 1.1500 38.6500
v 62.8500 1.1500 38.6500
v 62.8500 8.8500 38.6500
v 55.1500 8.8500 38.6500

o Ground
usemtl Ground
f 1 2 3 4 # Ground
f 5 6 7 8 # Ground
f 1 2 6 5 # Ground
f 2 3 7 6 # Ground
f 3 4 8 7 # Ground
f 4 1 5 8 # Ground

o RockSide
usemtl RockSide
f 9 10 11 12 # MainBase
f 13 14 15 16 # MainBase
f 9 10 14 13 # MainBase
f 10 11 15 14 # MainBase
f 11 12 16 15 # MainBase
f 12 9 13 16 # MainBase
f 25 26 27 28 # Plat_Left
f 29 30 31 32 # Plat_Left
f 25 26 30 29 # Plat_Left
f 26 27 31 30 # Plat_Left
f 27 28 32 31 # Plat_Left
f 28 25 29 32 # Plat_Left
f 41 42 43 44 # Plat_Right
f 45 46 47 48 # Plat_Right
f 41 42 46 45 # Plat_Right
f 42 43 47 46 # Plat_Right
f 43 44 48 47 # Plat_Right
f 44 41 45 48 # Plat_Right
f 57 58 59 60 # Plat_Back
f 61 62 63 64 # Plat_Back
f 57 58 62 61 # Plat_Back
f 58 59 63 62 # Plat_Back
f 59 60 64 63 # Plat_Back
f 60 57 61 64 # Plat_Back

o RockTop
usemtl RockTop
f 17 18 19 20 # MainTop
f 21 22 23 24 # MainTop
f 17 18 22 21 # MainTop
f 18 19 23 22 # MainTop
f 19 20 24 23 # MainTop
f 20 17 21 24 # MainTop
f 33 34 35 36 # Plat_Left_Top
f 37 38 39 40 # Plat_Left_Top
f 33 34 38 37 # Plat_Left_Top
f 34 35 39 38 # Plat_Left_Top
f 35 36 40 39 # Plat_Left_Top
f 36 33 37 40 # Plat_Left_Top
f 49 50 51 52 # Plat_Right_Top
f 53 54 55 56 # Plat_Right_Top
f 49 50 54 53 # Plat_Right_Top
f 50 51 55 54 # Plat_Right_Top
f 51 52 56 55 # Plat_Right_Top
f 52 49 53 56 # Plat_Right_Top
f 65 66 67 68 # Plat_Back_Top
f 69 70 71 72 # Plat_Back_Top
f 65 66 70 69 # Plat_Back_Top
f 66 67 71 70 # Plat_Back_Top
f 67 68 72 71 # Plat_Back_Top
f 68 65 69 72 # Plat_Back_Top

o Cover
usemtl Cover
f 73 74 75 76 # Plat_FarRight
f 77 78 79 80 # Plat_FarRight
f 73 74 78 77 # Plat_FarRight
f 74 75 79 78 # Plat_FarRight
f 75 76 80 79 # Plat_FarRight
f 76 73 77 80 # Plat_FarRight
f 81 82 83 84 # Cover1
f 85 86 87 88 # Cover1
f 81 82 86 85 # Cover1
f 82 83 87 86 # Cover1
f 83 84 88 87 # Cover1
f 84 81 85 88 # Cover1
f 89 90 91 92 # Cover2
f 93 94 95 96 # Cover2
f 89 90 94 93 # Cover2
f 90 91 95 94 # Cover2
f 91 92 96 95 # Cover2
f 92 89 93 96 # Cover2
f 97 98 99 100 # Cover3
f 101 102 103 104 # Cover3
f 97 98 102 101 # Cover3
f 98 99 103 102 # Cover3
f 99 100 104 103 # Cover3
f 100 97 101 104 # Cover3
f 105 106 107 108 # Cover4
f 109 110 111 112 # Cover4
f 105 106 110 109 # Cover4
f 106 107 111 110 # Cover4
f 107 108 112 111 # Cover4
f 108 105 109 112 # Cover4
f 113 114 115 116 # Cover5
f 117 118 119 120 # Cover5
f 113 114 118 117 # Cover5
f 114 115 119 118 # Cover5
f 115 116 120 119 # Cover5
f 116 113 117 120 # Cover5

o Debris
usemtl Debris
f 121 122 123 124 # FloatDebris
f 125 126 127 128 # FloatDebris
f 121 122 126 125 # FloatDebris
f 122 123 127 126 # FloatDebris
f 123 124 128 127 # FloatDebris
f 124 121 125 128 # FloatDebris

o Crate
usemtl Crate
f 129 130 131 132 # Crate
f 133 134 135 136 # Crate
f 129 130 134 133 # Crate
f 130 131 135 134 # Crate
f 131 132 136 135 # Crate
f 132 129 133 136 # Crate

o RockDark
usemtl RockDark
f 137 138 139 140 # CliffBack1
f 141 142 143 144 # CliffBack1
f 137 138 142 141 # CliffBack1
f 138 139 143 142 # CliffBack1
f 139 140 144 143 # CliffBack1
f 140 137 141 144 # CliffBack1
f 145 146 147 148 # CliffBack2
f 149 150 151 152 # CliffBack2
f 145 146 150 149 # CliffBack2
f 146 147 151 150 # CliffBack2
f 147 148 152 151 # CliffBack2
f 148 145 149 152 # CliffBack2
f 153 154 155 156 # CliffBack3
f 157 158 159 160 # CliffBack3
f 153 154 158 157 # CliffBack3
f 154 155 159 158 # CliffBack3
f 155 156 160 159 # CliffBack3
f 156 153 157 160 # CliffBack3
f 161 162 163 164 # CliffLeft
f 165 166 167 168 # CliffLeft
f 161 162 166 165 # CliffLeft
f 162 163 167 166 # CliffLeft
f 163 164 168 167 # CliffLeft
f 164 161 165 168 # CliffLeft
f 169 170 171 172 # CliffRight
f 173 174 175 176 # CliffRight
f 169 170 174 173 # CliffRight
f 170 171 175 174 # CliffRight
f 171 172 176 175 # CliffRight
f 172 169 173 176 # CliffRight
f 177 178 179 180 # CliffFrontL
f 181 182 183 184 # CliffFrontL
f 177 178 182 181 # CliffFrontL
f 178 179 183 182 # CliffFrontL
f 179 180 184 183 # CliffFrontL
f 180 177 181 184 # CliffFrontL
f 185 186 187 188 # CliffFrontR
f 189 190 191 192 # CliffFrontR
f 185 186 190 189 # CliffFrontR
f 186 187 191 190 # CliffFrontR
f 187 188 192 191 # CliffFrontR
f 188 185 189 192 # CliffFrontR
f 193 194 195 196 # Pillar1
f 197 198 199 200 # Pillar1
f 193 194 198 197 # Pillar1
f 194 195 199 198 # Pillar1
f 195 196 200 199 # Pillar1
f 196 193 197 200 # Pillar1
f 201 202 203 204 # Pillar2
f 205 206 207 208 # Pillar2
f 201 202 206 205 # Pillar2
f 202 203 207 206 # Pillar2
f 203 204 208 207 # Pillar2
f 204 201 205 208 # Pillar2

o Trunk
usemtl Trunk
f 209 210 211 212 # Trunk_-30_-60
f 213 214 215 216 # Trunk_-30_-60
f 209 210 214 213 # Trunk_-30_-60
f 210 211 215 214 # Trunk_-30_-60
f 211 212 216 215 # Trunk_-30_-60
f 212 209 213 216 # Trunk_-30_-60
f 233 234 235 236 # Trunk_8_-64
f 237 238 239 240 # Trunk_8_-64
f 233 234 238 237 # Trunk_8_-64
f 234 235 239 238 # Trunk_8_-64
f 235 236 240 239 # Trunk_8_-64
f 236 233 237 240 # Trunk_8_-64
f 257 258 259 260 # Trunk_42_-60
f 261 262 263 264 # Trunk_42_-60
f 257 258 262 261 # Trunk_42_-60
f 258 259 263 262 # Trunk_42_-60
f 259 260 264 263 # Trunk_42_-60
f 260 257 261 264 # Trunk_42_-60
f 281 282 283 284 # Trunk_-58_-10
f 285 286 287 288 # Trunk_-58_-10
f 281 282 286 285 # Trunk_-58_-10
f 282 283 287 286 # Trunk_-58_-10
f 283 284 288 287 # Trunk_-58_-10
f 284 281 285 288 # Trunk_-58_-10
f 305 306 307 308 # Trunk_58_5
f 309 310 311 312 # Trunk_58_5
f 305 306 310 309 # Trunk_58_5
f 306 307 311 310 # Trunk_58_5
f 307 308 312 311 # Trunk_58_5
f 308 305 309 312 # Trunk_58_5

o Leaf
usemtl Leaf
f 217 218 219 220 # Canopy_-30_-60
f 221 222 223 224 # Canopy_-30_-60
f 217 218 222 221 # Canopy_-30_-60
f 218 219 223 222 # Canopy_-30_-60
f 219 220 224 223 # Canopy_-30_-60
f 220 217 221 224 # Canopy_-30_-60
f 225 226 227 228 # Canopy2_-30_-60
f 229 230 231 232 # Canopy2_-30_-60
f 225 226 230 229 # Canopy2_-30_-60
f 226 227 231 230 # Canopy2_-30_-60
f 227 228 232 231 # Canopy2_-30_-60
f 228 225 229 232 # Canopy2_-30_-60
f 241 242 243 244 # Canopy_8_-64
f 245 246 247 248 # Canopy_8_-64
f 241 242 246 245 # Canopy_8_-64
f 242 243 247 246 # Canopy_8_-64
f 243 244 248 247 # Canopy_8_-64
f 244 241 245 248 # Canopy_8_-64
f 249 250 251 252 # Canopy2_8_-64
f 253 254 255 256 # Canopy2_8_-64
f 249 250 254 253 # Canopy2_8_-64
f 250 251 255 254 # Canopy2_8_-64
f 251 252 256 255 # Canopy2_8_-64
f 252 249 253 256 # Canopy2_8_-64
f 265 266 267 268 # Canopy_42_-60
f 269 270 271 272 # Canopy_42_-60
f 265 266 270 269 # Canopy_42_-60
f 266 267 271 270 # Canopy_42_-60
f 267 268 272 271 # Canopy_42_-60
f 268 265 269 272 # Canopy_42_-60
f 273 274 275 276 # Canopy2_42_-60
f 277 278 279 280 # Canopy2_42_-60
f 273 274 278 277 # Canopy2_42_-60
f 274 275 279 278 # Canopy2_42_-60
f 275 276 280 279 # Canopy2_42_-60
f 276 273 277 280 # Canopy2_42_-60
f 289 290 291 292 # Canopy_-58_-10
f 293 294 295 296 # Canopy_-58_-10
f 289 290 294 293 # Canopy_-58_-10
f 290 291 295 294 # Canopy_-58_-10
f 291 292 296 295 # Canopy_-58_-10
f 292 289 293 296 # Canopy_-58_-10
f 297 298 299 300 # Canopy2_-58_-10
f 301 302 303 304 # Canopy2_-58_-10
f 297 298 302 301 # Canopy2_-58_-10
f 298 299 303 302 # Canopy2_-58_-10
f 299 300 304 303 # Canopy2_-58_-10
f 300 297 301 304 # Canopy2_-58_-10
f 313 314 315 316 # Canopy_58_5
f 317 318 319 320 # Canopy_58_5
f 313 314 318 317 # Canopy_58_5
f 314 315 319 318 # Canopy_58_5
f 315 316 320 319 # Canopy_58_5
f 316 313 317 320 # Canopy_58_5
f 321 322 323 324 # Canopy2_58_5
f 325 326 327 328 # Canopy2_58_5
f 321 322 326 325 # Canopy2_58_5
f 322 323 327 326 # Canopy2_58_5
f 323 324 328 327 # Canopy2_58_5
f 324 321 325 328 # Canopy2_58_5
