# Low-poly house OBJ - Blender Z-up, meters
# Import: Blender File > Import > Wavefront (.obj)
mtllib low_poly_house.mtl

# ---- vertices ----
# Body
v -2 -1.5 0
v 2 -1.5 0
v 2 1.5 0
v -2 1.5 0
v -2 -1.5 3
v 2 -1.5 3
v 2 1.5 3
v -2 1.5 3
# Roof
v -2.4 -1.9 3.0
v 2.4 -1.9 3.0
v 2.4 1.9 3.0
v -2.4 1.9 3.0
v -2.4 0 4.5
v 2.4 0 4.5
# Chimney
v 0.95 0.25 3.2
v 1.45 0.25 3.2
v 1.45 0.75 3.2
v 0.95 0.75 3.2
v 0.95 0.25 4.8
v 1.45 0.25 4.8
v 1.45 0.75 4.8
v 0.95 0.75 4.8
# Door
v -0.5 1.5 0
v 0.5 1.5 0
v 0.5 1.6 0
v -0.5 1.6 0
v -0.5 1.5 1.8
v 0.5 1.5 1.8
v 0.5 1.6 1.8
v -0.5 1.6 1.8
# Window front-left
v -1.55 1.5 1.55
v -0.85 1.5 1.55
v -0.85 1.56 1.55
v -1.55 1.56 1.55
v -1.55 1.5 2.25
v -0.85 1.5 2.25
v -0.85 1.56 2.25
v -1.55 1.56 2.25
# Window front-right
v 0.85 1.5 1.55
v 1.55 1.5 1.55
v 1.55 1.56 1.55
v 0.85 1.56 1.55
v 0.85 1.5 2.25
v 1.55 1.5 2.25
v 1.55 1.56 2.25
v 0.85 1.56 2.25
# Window back-left
v -1.55 -1.56 1.55
v -0.85 -1.56 1.55
v -0.85 -1.5 1.55
v -1.55 -1.5 1.55
v -1.55 -1.56 2.25
v -0.85 -1.56 2.25
v -0.85 -1.5 2.25
v -1.55 -1.5 2.25
# Window back-right
v 0.85 -1.56 1.55
v 1.55 -1.56 1.55
v 1.55 -1.5 1.55
v 0.85 -1.5 1.55
v 0.85 -1.56 2.25
v 1.55 -1.56 2.25
v 1.55 -1.5 2.25
v 0.85 -1.5 2.25
# Window left
v -2.03 -0.35 1.55
v -1.97 -0.35 1.55
v -1.97 0.35 1.55
v -2.03 0.35 1.55
v -2.03 -0.35 2.25
v -1.97 -0.35 2.25
v -1.97 0.35 2.25
v -2.03 0.35 2.25
# Window right
v 1.97 -0.35 1.55
v 2.03 -0.35 1.55
v 2.03 0.35 1.55
v 1.97 0.35 1.55
v 1.97 -0.35 2.25
v 2.03 -0.35 2.25
v 2.03 0.35 2.25
v 1.97 0.35 2.25
# Step
v -0.7 1.5 0
v 0.7 1.5 0
v 0.7 2.0 0
v -0.7 2.0 0
v -0.7 1.5 0.2
v 0.7 1.5 0.2
v 0.7 2.0 0.2
v -0.7 2.0 0.2

# ---- faces ----
o Body
usemtl Wall
f 1 2 3 4
f 5 6 7 8
f 1 2 6 5
f 2 3 7 6
f 3 4 8 7
f 4 1 5 8

o Roof
usemtl Roof
f 9 10 14 13
f 11 12 13 14
f 9 13 12
f 10 11 14
f 9 12 11 10

o Chimney
usemtl Chimney
f 15 16 17 18
f 19 20 21 22
f 15 16 20 19
f 16 17 21 20
f 17 18 22 21
f 18 15 19 22

o Door
usemtl Door
f 23 24 25 26
f 27 28 29 30
f 23 24 28 27
f 24 25 29 28
f 25 26 30 29
f 26 23 27 30

o Windows
usemtl Window
f 31 32 33 34
f 35 36 37 38
f 31 32 36 35
f 32 33 37 36
f 33 34 38 37
f 34 31 35 38
f 39 40 41 42
f 43 44 45 46
f 39 40 44 43
f 40 41 45 44
f 41 42 46 45
f 42 39 43 46
f 47 48 49 50
f 51 52 53 54
f 47 48 52 51
f 48 49 53 52
f 49 50 54 53
f 50 47 51 54
f 55 56 57 58
f 59 60 61 62
f 55 56 60 59
f 56 57 61 60
f 57 58 62 61
f 58 55 59 62
f 63 64 65 66
f 67 68 69 70
f 63 64 68 67
f 64 65 69 68
f 65 66 70 69
f 66 63 67 70
f 71 72 73 74
f 75 76 77 78
f 71 72 76 75
f 72 73 77 76
f 73 74 78 77
f 74 71 75 78

o Step
usemtl Trim
f 79 80 81 82
f 83 84 85 86
f 79 80 84 83
f 80 81 85 84
f 81 82 86 85
f 82 79 83 86
